<svg viewBox="0 -1 163.403 90.305" xmlns="http://www.w3.org/2000/svg"><g id="svgGroup" stroke-linecap="round" fill-rule="evenodd" font-size="9pt" stroke="#000" stroke-width="0.25mm" fill="#000" style="stroke:#000;stroke-width:0.25mm;fill:#000"><path d="M 24.402 85.301 Q 17.502 85.301 11.952 81.901 Q 6.402 78.501 3.202 72.051 Q 0.002 65.601 0.002 56.801 Q 0.002 41.601 6.502 28.651 Q 13.002 15.701 25.702 7.851 Q 38.402 0.001 56.202 0.001 Q 60.802 0.001 66.052 0.701 Q 71.302 1.401 75.602 2.801 Q 78.402 3.601 78.402 6.801 Q 78.402 9.401 76.452 11.701 Q 74.502 14.001 71.902 14.001 Q 71.102 14.001 70.702 13.901 Q 65.502 12.701 61.802 12.151 Q 58.102 11.601 54.002 11.601 Q 41.302 11.601 32.402 17.751 Q 23.502 23.901 19.102 34.001 Q 14.702 44.101 14.702 55.801 Q 14.702 64.301 18.052 68.951 Q 21.402 73.601 26.802 73.601 Q 32.902 73.601 37.502 68.601 Q 42.102 63.601 45.902 52.401 Q 49.702 41.201 53.402 22.001 Q 54.002 19.201 55.802 18.201 Q 57.602 17.201 60.602 17.201 Q 67.702 17.201 67.702 21.801 Q 67.702 22.601 67.402 23.801 Q 64.802 33.501 62.652 45.251 Q 60.502 57.001 60.502 63.101 Q 60.502 68.501 62.102 70.951 Q 63.702 73.401 67.002 73.401 Q 70.202 73.401 73.102 71.251 A 23.845 23.845 0 0 0 74.956 69.705 A 43.109 43.109 0 0 0 75.125 69.55 A 12.009 12.009 0 0 1 76.332 66.429 A 10.164 10.164 0 0 1 77.002 65.401 Q 79.302 62.301 83.502 62.301 Q 87.102 62.301 87.102 65.001 Q 87.102 65.701 86.902 67.501 Q 86.602 71.101 86.602 71.601 Q 86.602 74.601 89.202 74.601 Q 91.102 74.601 92.852 72.351 Q 94.602 70.101 95.752 66.201 Q 96.902 62.301 96.902 57.601 Q 96.902 54.001 96.002 51.551 Q 95.102 49.101 93.802 49.101 Q 92.702 49.101 92.202 49.651 Q 91.702 50.201 91.202 51.501 Q 90.602 53.101 89.602 54.051 Q 88.602 55.001 86.102 55.001 Q 83.902 55.001 82.602 53.451 Q 81.302 51.901 81.302 48.701 Q 81.302 43.601 84.402 40.701 Q 87.502 37.801 92.402 37.801 Q 96.602 37.801 100.002 39.851 Q 103.402 41.901 105.202 45.801 Q 108.202 41.801 111.952 39.801 Q 115.702 37.801 119.302 37.801 Q 123.202 37.801 125.252 39.601 Q 127.302 41.401 127.302 45.401 Q 127.302 49.901 125.602 52.451 Q 123.902 55.001 121.502 55.001 Q 119.302 55.001 118.502 54.101 Q 117.702 53.201 117.302 51.501 Q 117.102 50.301 116.702 49.701 Q 116.302 49.101 115.302 49.101 Q 114.102 49.101 112.752 51.351 Q 111.402 53.601 110.452 57.301 Q 109.502 61.001 109.502 65.001 Q 109.502 69.701 111.752 72.251 Q 114.002 74.801 117.902 74.801 Q 121.802 74.801 125.252 72.151 Q 127.442 70.468 130.096 67.598 A 81.726 81.726 0 0 0 130.631 67.01 A 46.575 46.575 0 0 1 130.738 65.106 Q 130.998 61.577 131.752 56.951 Q 132.902 49.901 134.702 43.801 Q 135.602 40.601 137.102 39.401 Q 138.602 38.201 141.902 38.201 Q 147.002 38.201 147.002 41.601 Q 147.002 44.101 145.102 53.201 Q 142.702 64.201 142.702 68.101 Q 142.702 71.101 143.502 72.701 Q 144.302 74.301 146.202 74.301 Q 148.002 74.301 150.702 71.801 Q 153.402 69.301 157.902 63.901 Q 159.102 62.501 160.602 62.501 Q 161.902 62.501 162.652 63.701 Q 163.402 64.901 163.402 67.001 Q 163.402 71.001 161.502 73.201 Q 151.602 85.301 143.002 85.301 Q 136.502 85.301 133.552 80.701 A 17.114 17.114 0 0 1 132.192 78.047 A 46.504 46.504 0 0 1 129.824 80.016 A 41.632 41.632 0 0 1 127.252 81.851 Q 122.002 85.301 115.402 85.301 Q 110.302 85.301 106.352 83.401 Q 102.402 81.501 100.102 78.001 Q 94.402 85.201 86.602 85.201 Q 81.102 85.201 77.902 82.001 A 10.732 10.732 0 0 1 76.686 80.537 A 42.127 42.127 0 0 1 76.431 80.739 A 31.425 31.425 0 0 1 74.402 82.201 Q 69.702 85.301 62.902 85.301 Q 55.902 85.301 51.602 81.251 Q 47.302 77.201 46.202 69.801 Q 38.802 85.301 24.402 85.301 Z M 143.802 31.601 Q 139.602 31.601 137.502 29.651 Q 135.402 27.701 135.402 24.201 Q 135.402 20.701 138.152 18.351 Q 140.902 16.001 145.002 16.001 Q 148.702 16.001 151.002 17.801 Q 153.302 19.601 153.302 22.901 Q 153.302 26.901 150.702 29.251 Q 148.102 31.601 143.802 31.601 Z" vector-effect="non-scaling-stroke"/></g></svg>